# xmcd
#
# Track frame offsets: 
#        150
#        21510
#        42300
#        62262
#        77412
#        97407
#        116115
#        140967
#        159975
#        183180
#        205280
#        215765
#
# Disc length: 3118 seconds
#
# Revision: 3
# Processed by: cddbd v1.5.2PL0 Copyright (c) Steve Scherf et al.
# Submitted via: ExactAudioCopy v1.1
#
DISCID=b00c2c0c
DTITLE=Aerosmith - Permanent Vacation [22P2-3032]
DYEAR=1989
DGENRE=Hard Rock
TTITLE0=Heart's Done Time
TTITLE1=Magic Touch
TTITLE2=Rag Doll
TTITLE3=Simoriah
TTITLE4=Dude (Looks Like A Lady)
TTITLE5=St. John
TTITLE6=Hangman Jury
TTITLE7=Girl Keeps Coming Apart
TTITLE8=Angel
TTITLE9=Permanent Vacation
TTITLE10=I'm Down
TTITLE11=The Movie
EXTD=
EXTT0=
EXTT1=
EXTT2=
EXTT3=
EXTT4=
EXTT5=
EXTT6=
EXTT7=
EXTT8=
EXTT9=
EXTT10=
EXTT11=
PLAYORDER=
